<svg width="162" height="187" viewBox="0 0 162 187" fill="none" xmlns="http://www.w3.org/2000/svg">
<mask id="path-1-outside-1_570_797" maskUnits="userSpaceOnUse" x="0" y="0" width="162" height="187" fill="black">
<rect fill="white" width="162" height="187"/>
<path fill-rule="evenodd" clip-rule="evenodd" d="M112.746 185.707C112.787 185.905 112.981 186.033 113.179 185.992C113.378 185.952 113.506 185.758 113.466 185.56C111.303 175.062 106.076 166.246 100.073 159.178C89.1784 146.349 75.6991 139.268 73.3855 138.365C71.3506 137.571 69.4868 137.511 67.9646 137.972C66.2728 138.485 65.0062 139.641 64.3944 141.151C64.0183 142.078 63.0979 144.162 62.0064 146.633C59.9269 151.341 57.2257 157.459 56.4535 159.732C55.9016 161.355 55.1854 162.508 53.9388 163.031L53.938 163.031C52.653 163.569 50.7739 163.482 47.9084 162.613C44.907 161.704 39.3326 159.78 33.0174 157.601C26.8627 155.478 20.0087 153.113 14.2155 151.228C8.3248 149.311 4.90201 147.909 3.17104 146.335C1.52757 144.84 1.45081 143.136 2.20461 140.571C2.81793 138.483 3.99085 134.24 5.2697 129.551C7.35224 121.914 9.76332 112.929 10.458 110.312C10.9846 108.33 11.535 107.116 12.4384 106.615C12.7877 106.422 13.1999 106.329 13.6958 106.333C17.6966 122.157 31.0032 139.138 31.301 139.517C31.3908 139.642 31.5559 139.701 31.7117 139.652C31.7685 139.635 51.5046 133.226 57.4045 131.586C60.4558 130.737 63.0112 130.025 64.7345 129.541C66.5944 129.019 67.7811 128.682 68.0575 128.593C68.4735 128.458 69.3532 128.148 68.7959 127.229C68.4413 126.642 67.1586 125.723 63.7251 124.28C61.2388 123.236 54.7409 120.715 47.3342 117.875C34.8359 113.083 19.7976 107.404 17.0326 106.379C15.9472 105.976 15.0376 105.726 14.2631 105.638C13.0572 100.602 12.8468 95.7228 14.389 91.6012C18.0704 81.7605 28.2152 75.8592 36.3266 73.0713C38.8835 72.1926 41.2363 71.6241 43.12 71.3399C44.963 71.0618 46.3302 71.0526 46.9665 71.2894C47.0985 71.3384 47.1753 71.3843 47.1891 71.4257C47.5123 72.3619 48.3329 74.1393 49.4236 76.4996C51.1585 80.2551 53.581 85.4991 55.7495 91.153C59.1071 99.9058 60.7291 99.3128 68.0782 96.6237C68.7476 96.3794 69.4661 96.1166 70.1961 95.8569C73.2297 94.7782 77.6342 93.2912 82.4311 91.6724C91.7261 88.536 102.501 84.8992 107.704 82.7419C111.685 81.0917 114.405 79.9027 115.858 78.3153L115.858 78.3146L115.859 78.3153C117.367 76.6667 117.503 74.6679 116.231 71.4571C115.094 68.5835 114.035 65.624 112.808 62.1911C111.436 58.3552 109.852 53.9232 107.659 48.2372C105.659 43.0476 104.353 40.1517 102.901 38.7443C103.726 37.9568 104.57 37.1861 105.433 36.4284C114.728 28.2739 126.363 21.6601 143.553 12.6561C146.971 10.8657 150.108 9.04619 152.983 7.20906C155.863 5.36964 158.481 3.51413 160.859 1.65478C161.019 1.52991 161.047 1.30007 160.922 1.14072C160.798 0.981374 160.567 0.953029 160.407 1.0779C158.043 2.92729 155.443 4.76901 152.589 6.59235C149.732 8.41721 146.614 10.2268 143.214 12.0072C125.969 21.0404 114.294 27.6787 104.948 35.8776C104.056 36.6605 103.184 37.458 102.332 38.2724C100.846 37.232 99.1988 37.5438 96.6381 38.4908C95.7438 38.8217 94.1687 39.4162 92.1583 40.177C83.0152 43.6313 64.7299 50.5416 54.4392 53.6696C46.1889 56.1764 44.4932 58.2854 46.3025 60.0659C47.9168 61.654 52.8019 62.8407 58.1207 63.7777C67.0535 65.3505 80.8552 69.6208 80.8951 69.6323C81.0686 69.6851 81.2505 69.6047 81.3295 69.4499C88.2995 55.9856 94.5655 46.8352 102.372 39.2553C103.734 40.5585 105.002 43.3839 106.975 48.5C109.117 54.0581 110.724 58.5513 112.113 62.4393C113.342 65.8783 114.402 68.8416 115.546 71.7283C116.697 74.6349 116.606 76.4108 115.314 77.8219L115.315 77.8227C113.967 79.2944 111.313 80.452 107.422 82.0647C102.242 84.2121 91.4789 87.8442 82.1954 90.9775C77.3963 92.5971 72.9917 94.0841 69.952 95.1651C69.1652 95.4447 68.4712 95.6983 67.8249 95.935C61.0338 98.4187 59.5354 98.9665 56.4381 90.8917C54.2627 85.2218 51.8324 79.9602 50.0915 76.1917C49.0122 73.855 48.1993 72.0961 47.8861 71.1867C47.7963 70.927 47.5699 70.7316 47.2229 70.6021C46.4722 70.3225 44.973 70.3164 43.011 70.6121C41.0873 70.9025 38.6893 71.4816 36.0879 72.3757C27.8222 75.2164 17.4786 81.2487 13.7012 91.3445C12.1283 95.5474 12.3218 100.501 13.5215 105.603C12.9719 105.621 12.4999 105.744 12.0831 105.973C10.9677 106.592 10.3267 107.946 9.74872 110.124C9.07091 112.673 6.68212 121.576 4.55966 129.358C3.27007 134.086 2.0956 138.338 1.5007 140.363C0.660164 143.221 0.76764 145.14 2.6767 146.877C4.49825 148.534 7.99857 149.975 13.989 151.925C19.892 153.847 26.6823 156.189 32.7795 158.294C39.1054 160.477 44.6905 162.403 47.6957 163.314C50.7432 164.237 52.7804 164.314 54.2251 163.709L54.2243 163.708L54.2251 163.707C55.7066 163.086 56.5348 161.785 57.152 159.967C57.9127 157.73 60.6078 151.627 62.6827 146.929C63.778 144.449 64.7015 142.357 65.0791 141.426C65.6096 140.12 66.7088 139.118 68.1811 138.672C69.5513 138.256 71.2485 138.317 73.1207 139.048C75.4043 139.939 88.7178 146.939 99.5143 159.651C105.446 166.639 110.611 175.349 112.746 185.707ZM14.4504 106.4C15.0998 106.504 15.8651 106.728 16.7747 107.065C19.5588 108.098 34.6194 113.785 47.0709 118.558C54.4546 121.389 60.9394 123.906 63.4372 124.956C66.698 126.325 67.874 127.13 68.1634 127.608C68.2509 127.753 67.9623 127.85 67.8272 127.895C67.5524 127.984 66.3756 128.318 64.5334 128.836C62.5552 129.39 60.0666 130.084 57.2065 130.879C51.6605 132.422 34.0076 138.137 31.7294 138.876C30.2195 136.92 18.2539 121.124 14.4504 106.4ZM96.8876 39.181C99.1221 38.3544 100.57 38.048 101.785 38.7972C94.0052 46.3694 87.7468 55.4907 80.8152 68.8416C78.7742 68.218 66.4593 64.5009 58.2451 63.0537C53.0476 62.1382 48.2983 61.0021 46.8153 59.5426C45.5273 58.2763 47.2705 56.613 54.6488 54.3706C64.9794 51.2311 83.2685 44.3193 92.4131 40.8634C94.3583 40.1287 95.8835 39.5518 96.8876 39.181Z"/>
</mask>
<path fill-rule="evenodd" clip-rule="evenodd" d="M112.746 185.707C112.787 185.905 112.981 186.033 113.179 185.992C113.378 185.952 113.506 185.758 113.466 185.56C111.303 175.062 106.076 166.246 100.073 159.178C89.1784 146.349 75.6991 139.268 73.3855 138.365C71.3506 137.571 69.4868 137.511 67.9646 137.972C66.2728 138.485 65.0062 139.641 64.3944 141.151C64.0183 142.078 63.0979 144.162 62.0064 146.633C59.9269 151.341 57.2257 157.459 56.4535 159.732C55.9016 161.355 55.1854 162.508 53.9388 163.031L53.938 163.031C52.653 163.569 50.7739 163.482 47.9084 162.613C44.907 161.704 39.3326 159.78 33.0174 157.601C26.8627 155.478 20.0087 153.113 14.2155 151.228C8.3248 149.311 4.90201 147.909 3.17104 146.335C1.52757 144.84 1.45081 143.136 2.20461 140.571C2.81793 138.483 3.99085 134.24 5.2697 129.551C7.35224 121.914 9.76332 112.929 10.458 110.312C10.9846 108.33 11.535 107.116 12.4384 106.615C12.7877 106.422 13.1999 106.329 13.6958 106.333C17.6966 122.157 31.0032 139.138 31.301 139.517C31.3908 139.642 31.5559 139.701 31.7117 139.652C31.7685 139.635 51.5046 133.226 57.4045 131.586C60.4558 130.737 63.0112 130.025 64.7345 129.541C66.5944 129.019 67.7811 128.682 68.0575 128.593C68.4735 128.458 69.3532 128.148 68.7959 127.229C68.4413 126.642 67.1586 125.723 63.7251 124.28C61.2388 123.236 54.7409 120.715 47.3342 117.875C34.8359 113.083 19.7976 107.404 17.0326 106.379C15.9472 105.976 15.0376 105.726 14.2631 105.638C13.0572 100.602 12.8468 95.7228 14.389 91.6012C18.0704 81.7605 28.2152 75.8592 36.3266 73.0713C38.8835 72.1926 41.2363 71.6241 43.12 71.3399C44.963 71.0618 46.3302 71.0526 46.9665 71.2894C47.0985 71.3384 47.1753 71.3843 47.1891 71.4257C47.5123 72.3619 48.3329 74.1393 49.4236 76.4996C51.1585 80.2551 53.581 85.4991 55.7495 91.153C59.1071 99.9058 60.7291 99.3128 68.0782 96.6237C68.7476 96.3794 69.4661 96.1166 70.1961 95.8569C73.2297 94.7782 77.6342 93.2912 82.4311 91.6724C91.7261 88.536 102.501 84.8992 107.704 82.7419C111.685 81.0917 114.405 79.9027 115.858 78.3153L115.858 78.3146L115.859 78.3153C117.367 76.6667 117.503 74.6679 116.231 71.4571C115.094 68.5835 114.035 65.624 112.808 62.1911C111.436 58.3552 109.852 53.9232 107.659 48.2372C105.659 43.0476 104.353 40.1517 102.901 38.7443C103.726 37.9568 104.57 37.1861 105.433 36.4284C114.728 28.2739 126.363 21.6601 143.553 12.6561C146.971 10.8657 150.108 9.04619 152.983 7.20906C155.863 5.36964 158.481 3.51413 160.859 1.65478C161.019 1.52991 161.047 1.30007 160.922 1.14072C160.798 0.981374 160.567 0.953029 160.407 1.0779C158.043 2.92729 155.443 4.76901 152.589 6.59235C149.732 8.41721 146.614 10.2268 143.214 12.0072C125.969 21.0404 114.294 27.6787 104.948 35.8776C104.056 36.6605 103.184 37.458 102.332 38.2724C100.846 37.232 99.1988 37.5438 96.6381 38.4908C95.7438 38.8217 94.1687 39.4162 92.1583 40.177C83.0152 43.6313 64.7299 50.5416 54.4392 53.6696C46.1889 56.1764 44.4932 58.2854 46.3025 60.0659C47.9168 61.654 52.8019 62.8407 58.1207 63.7777C67.0535 65.3505 80.8552 69.6208 80.8951 69.6323C81.0686 69.6851 81.2505 69.6047 81.3295 69.4499C88.2995 55.9856 94.5655 46.8352 102.372 39.2553C103.734 40.5585 105.002 43.3839 106.975 48.5C109.117 54.0581 110.724 58.5513 112.113 62.4393C113.342 65.8783 114.402 68.8416 115.546 71.7283C116.697 74.6349 116.606 76.4108 115.314 77.8219L115.315 77.8227C113.967 79.2944 111.313 80.452 107.422 82.0647C102.242 84.2121 91.4789 87.8442 82.1954 90.9775C77.3963 92.5971 72.9917 94.0841 69.952 95.1651C69.1652 95.4447 68.4712 95.6983 67.8249 95.935C61.0338 98.4187 59.5354 98.9665 56.4381 90.8917C54.2627 85.2218 51.8324 79.9602 50.0915 76.1917C49.0122 73.855 48.1993 72.0961 47.8861 71.1867C47.7963 70.927 47.5699 70.7316 47.2229 70.6021C46.4722 70.3225 44.973 70.3164 43.011 70.6121C41.0873 70.9025 38.6893 71.4816 36.0879 72.3757C27.8222 75.2164 17.4786 81.2487 13.7012 91.3445C12.1283 95.5474 12.3218 100.501 13.5215 105.603C12.9719 105.621 12.4999 105.744 12.0831 105.973C10.9677 106.592 10.3267 107.946 9.74872 110.124C9.07091 112.673 6.68212 121.576 4.55966 129.358C3.27007 134.086 2.0956 138.338 1.5007 140.363C0.660164 143.221 0.76764 145.14 2.6767 146.877C4.49825 148.534 7.99857 149.975 13.989 151.925C19.892 153.847 26.6823 156.189 32.7795 158.294C39.1054 160.477 44.6905 162.403 47.6957 163.314C50.7432 164.237 52.7804 164.314 54.2251 163.709L54.2243 163.708L54.2251 163.707C55.7066 163.086 56.5348 161.785 57.152 159.967C57.9127 157.73 60.6078 151.627 62.6827 146.929C63.778 144.449 64.7015 142.357 65.0791 141.426C65.6096 140.12 66.7088 139.118 68.1811 138.672C69.5513 138.256 71.2485 138.317 73.1207 139.048C75.4043 139.939 88.7178 146.939 99.5143 159.651C105.446 166.639 110.611 175.349 112.746 185.707ZM14.4504 106.4C15.0998 106.504 15.8651 106.728 16.7747 107.065C19.5588 108.098 34.6194 113.785 47.0709 118.558C54.4546 121.389 60.9394 123.906 63.4372 124.956C66.698 126.325 67.874 127.13 68.1634 127.608C68.2509 127.753 67.9623 127.85 67.8272 127.895C67.5524 127.984 66.3756 128.318 64.5334 128.836C62.5552 129.39 60.0666 130.084 57.2065 130.879C51.6605 132.422 34.0076 138.137 31.7294 138.876C30.2195 136.92 18.2539 121.124 14.4504 106.4ZM96.8876 39.181C99.1221 38.3544 100.57 38.048 101.785 38.7972C94.0052 46.3694 87.7468 55.4907 80.8152 68.8416C78.7742 68.218 66.4593 64.5009 58.2451 63.0537C53.0476 62.1382 48.2983 61.0021 46.8153 59.5426C45.5273 58.2763 47.2705 56.613 54.6488 54.3706C64.9794 51.2311 83.2685 44.3193 92.4131 40.8634C94.3583 40.1287 95.8835 39.5518 96.8876 39.181Z" fill="white"/>
<path fill-rule="evenodd" clip-rule="evenodd" d="M112.746 185.707C112.787 185.905 112.981 186.033 113.179 185.992C113.378 185.952 113.506 185.758 113.466 185.56C111.303 175.062 106.076 166.246 100.073 159.178C89.1784 146.349 75.6991 139.268 73.3855 138.365C71.3506 137.571 69.4868 137.511 67.9646 137.972C66.2728 138.485 65.0062 139.641 64.3944 141.151C64.0183 142.078 63.0979 144.162 62.0064 146.633C59.9269 151.341 57.2257 157.459 56.4535 159.732C55.9016 161.355 55.1854 162.508 53.9388 163.031L53.938 163.031C52.653 163.569 50.7739 163.482 47.9084 162.613C44.907 161.704 39.3326 159.78 33.0174 157.601C26.8627 155.478 20.0087 153.113 14.2155 151.228C8.3248 149.311 4.90201 147.909 3.17104 146.335C1.52757 144.84 1.45081 143.136 2.20461 140.571C2.81793 138.483 3.99085 134.24 5.2697 129.551C7.35224 121.914 9.76332 112.929 10.458 110.312C10.9846 108.33 11.535 107.116 12.4384 106.615C12.7877 106.422 13.1999 106.329 13.6958 106.333C17.6966 122.157 31.0032 139.138 31.301 139.517C31.3908 139.642 31.5559 139.701 31.7117 139.652C31.7685 139.635 51.5046 133.226 57.4045 131.586C60.4558 130.737 63.0112 130.025 64.7345 129.541C66.5944 129.019 67.7811 128.682 68.0575 128.593C68.4735 128.458 69.3532 128.148 68.7959 127.229C68.4413 126.642 67.1586 125.723 63.7251 124.28C61.2388 123.236 54.7409 120.715 47.3342 117.875C34.8359 113.083 19.7976 107.404 17.0326 106.379C15.9472 105.976 15.0376 105.726 14.2631 105.638C13.0572 100.602 12.8468 95.7228 14.389 91.6012C18.0704 81.7605 28.2152 75.8592 36.3266 73.0713C38.8835 72.1926 41.2363 71.6241 43.12 71.3399C44.963 71.0618 46.3302 71.0526 46.9665 71.2894C47.0985 71.3384 47.1753 71.3843 47.1891 71.4257C47.5123 72.3619 48.3329 74.1393 49.4236 76.4996C51.1585 80.2551 53.581 85.4991 55.7495 91.153C59.1071 99.9058 60.7291 99.3128 68.0782 96.6237C68.7476 96.3794 69.4661 96.1166 70.1961 95.8569C73.2297 94.7782 77.6342 93.2912 82.4311 91.6724C91.7261 88.536 102.501 84.8992 107.704 82.7419C111.685 81.0917 114.405 79.9027 115.858 78.3153L115.858 78.3146L115.859 78.3153C117.367 76.6667 117.503 74.6679 116.231 71.4571C115.094 68.5835 114.035 65.624 112.808 62.1911C111.436 58.3552 109.852 53.9232 107.659 48.2372C105.659 43.0476 104.353 40.1517 102.901 38.7443C103.726 37.9568 104.57 37.1861 105.433 36.4284C114.728 28.2739 126.363 21.6601 143.553 12.6561C146.971 10.8657 150.108 9.04619 152.983 7.20906C155.863 5.36964 158.481 3.51413 160.859 1.65478C161.019 1.52991 161.047 1.30007 160.922 1.14072C160.798 0.981374 160.567 0.953029 160.407 1.0779C158.043 2.92729 155.443 4.76901 152.589 6.59235C149.732 8.41721 146.614 10.2268 143.214 12.0072C125.969 21.0404 114.294 27.6787 104.948 35.8776C104.056 36.6605 103.184 37.458 102.332 38.2724C100.846 37.232 99.1988 37.5438 96.6381 38.4908C95.7438 38.8217 94.1687 39.4162 92.1583 40.177C83.0152 43.6313 64.7299 50.5416 54.4392 53.6696C46.1889 56.1764 44.4932 58.2854 46.3025 60.0659C47.9168 61.654 52.8019 62.8407 58.1207 63.7777C67.0535 65.3505 80.8552 69.6208 80.8951 69.6323C81.0686 69.6851 81.2505 69.6047 81.3295 69.4499C88.2995 55.9856 94.5655 46.8352 102.372 39.2553C103.734 40.5585 105.002 43.3839 106.975 48.5C109.117 54.0581 110.724 58.5513 112.113 62.4393C113.342 65.8783 114.402 68.8416 115.546 71.7283C116.697 74.6349 116.606 76.4108 115.314 77.8219L115.315 77.8227C113.967 79.2944 111.313 80.452 107.422 82.0647C102.242 84.2121 91.4789 87.8442 82.1954 90.9775C77.3963 92.5971 72.9917 94.0841 69.952 95.1651C69.1652 95.4447 68.4712 95.6983 67.8249 95.935C61.0338 98.4187 59.5354 98.9665 56.4381 90.8917C54.2627 85.2218 51.8324 79.9602 50.0915 76.1917C49.0122 73.855 48.1993 72.0961 47.8861 71.1867C47.7963 70.927 47.5699 70.7316 47.2229 70.6021C46.4722 70.3225 44.973 70.3164 43.011 70.6121C41.0873 70.9025 38.6893 71.4816 36.0879 72.3757C27.8222 75.2164 17.4786 81.2487 13.7012 91.3445C12.1283 95.5474 12.3218 100.501 13.5215 105.603C12.9719 105.621 12.4999 105.744 12.0831 105.973C10.9677 106.592 10.3267 107.946 9.74872 110.124C9.07091 112.673 6.68212 121.576 4.55966 129.358C3.27007 134.086 2.0956 138.338 1.5007 140.363C0.660164 143.221 0.76764 145.14 2.6767 146.877C4.49825 148.534 7.99857 149.975 13.989 151.925C19.892 153.847 26.6823 156.189 32.7795 158.294C39.1054 160.477 44.6905 162.403 47.6957 163.314C50.7432 164.237 52.7804 164.314 54.2251 163.709L54.2243 163.708L54.2251 163.707C55.7066 163.086 56.5348 161.785 57.152 159.967C57.9127 157.73 60.6078 151.627 62.6827 146.929C63.778 144.449 64.7015 142.357 65.0791 141.426C65.6096 140.12 66.7088 139.118 68.1811 138.672C69.5513 138.256 71.2485 138.317 73.1207 139.048C75.4043 139.939 88.7178 146.939 99.5143 159.651C105.446 166.639 110.611 175.349 112.746 185.707ZM14.4504 106.4C15.0998 106.504 15.8651 106.728 16.7747 107.065C19.5588 108.098 34.6194 113.785 47.0709 118.558C54.4546 121.389 60.9394 123.906 63.4372 124.956C66.698 126.325 67.874 127.13 68.1634 127.608C68.2509 127.753 67.9623 127.85 67.8272 127.895C67.5524 127.984 66.3756 128.318 64.5334 128.836C62.5552 129.39 60.0666 130.084 57.2065 130.879C51.6605 132.422 34.0076 138.137 31.7294 138.876C30.2195 136.92 18.2539 121.124 14.4504 106.4ZM96.8876 39.181C99.1221 38.3544 100.57 38.048 101.785 38.7972C94.0052 46.3694 87.7468 55.4907 80.8152 68.8416C78.7742 68.218 66.4593 64.5009 58.2451 63.0537C53.0476 62.1382 48.2983 61.0021 46.8153 59.5426C45.5273 58.2763 47.2705 56.613 54.6488 54.3706C64.9794 51.2311 83.2685 44.3193 92.4131 40.8634C94.3583 40.1287 95.8835 39.5518 96.8876 39.181Z" stroke="white" stroke-width="0.8" mask="url(#path-1-outside-1_570_797)"/>
</svg>
